<?xml version="1.0" encoding="utf-8"?>
<!-- Generator: Adobe Illustrator 22.1.0, SVG Export Plug-In . SVG Version: 6.00 Build 0)  -->
<svg version="1.1" id="Layer_1" xmlns="http://www.w3.org/2000/svg" xmlns:xlink="http://www.w3.org/1999/xlink" x="0px" y="0px"
	 viewBox="0 0 24 24" style="enable-background:new 0 0 24 24;" xml:space="preserve">
<style type="text/css">
	.st0{fill:#FFFFFF;}
</style>
<path class="st0" d="M87,3.5v61.1c0,9.8-8.1,18.3-18.4,19c-15.5,1.4-36.9,2.1-53.1,2.1c-16.2,0-37.6-1.4-53.1-2.1
	c-10.3-0.7-18.4-9.1-18.4-19V3.5L-45,9.1L5.9,35.8c2.9,1.4,6.6,2.1,9.6,2.1c2.9,0,6.6-0.7,9.6-2.1L75.9,9.1L87,3.5z"/>
<path class="st0" d="M86.3-11.9c0,1.4-0.7,3.5-2.2,4.2l-8.8,4.2L19.2,26c-2.9,1.4-5.9,1.4-8.8,0L-54.6-7.7c-1.5-0.7-2.9-2.1-2.2-3.5
	c1.5-8.4,8.8-15.5,18.4-16.2c15.5-1.4,36.9-2.1,53.1-2.1c16.2,0,38.3,1.4,53.1,2.1C77.4-26.7,84.8-20.4,86.3-11.9z"/>
</svg>
