<svg id="Capa_1" data-name="Capa 1" xmlns="http://www.w3.org/2000/svg" viewBox="0 0 52 41.6"><defs><style>.cls-1{fill:#fff;}</style></defs><title>phone2</title><path class="cls-1" d="M52.83,17.92V40a7,7,0,0,1-6.65,6.85c-5.6.51-13.32.76-19.18.76s-13.58-.51-19.17-.76A7,7,0,0,1,1.17,40V17.92l4,2,18.38,9.64a8.26,8.26,0,0,0,6.92,0L48.84,20Z" transform="translate(-0.83 -6)"/><path class="cls-1" d="M52.57,12.34a1.78,1.78,0,0,1-.8,1.52l-3.2,1.53L28.33,26a3.52,3.52,0,0,1-3.19,0L1.7,13.86C1.17,13.61.64,13.1.9,12.6A7.24,7.24,0,0,1,7.56,6.76C13.15,6.25,20.88,6,26.74,6s13.84.51,19.17.76A7,7,0,0,1,52.57,12.34Z" transform="translate(-0.83 -6)"/></svg>